<?xml version="1.0" encoding="utf-8"?>
<!-- Generator: Adobe Illustrator 28.3.0, SVG Export Plug-In . SVG Version: 6.00 Build 0)  -->
<svg version="1.1" id="Ellipse_1__x2B__Calque_1_xA0_Image_00000178910475919487470310000006372202847044904366_"
	 xmlns="http://www.w3.org/2000/svg" xmlns:xlink="http://www.w3.org/1999/xlink" x="0px" y="0px" viewBox="0 0 384.3 122.9"
	 style="enable-background:new 0 0 384.3 122.9;" xml:space="preserve">
<style type="text/css">
	.st0{display:none;}
	.st1{display:inline;}
</style>
<path id="escaladeEnd" d="M309,19.3v84.4c0,6.6-5.4,12-12,12H71.4c-1,0-1.9-0.1-2.8-0.3c-5.2-1.3-9.2-6-9.2-11.7V44.2
	c0.5,0.1,1,0.1,1.5,0.1c1.5-0.2,2.6-1.5,2.7-2.9c0.1-1.5-0.8-2.8-2.3-3c-0.6-0.1-1.2-0.1-1.9-0.1v-19c0-5.6,3.8-10.2,9-11.6
	c1-0.2,2-0.4,3-0.4H297C303.6,7.3,309,12.7,309,19.3z"/>
<g id="escaladeStart">
	<path d="M115.7,56.4v10.3c-0.2,0.9-0.4,1.7-0.5,2.6c-0.6,5-2.1,9.8-4.1,14.4c-3.4,7.5-8.2,14-14.5,19.3c-4.3,3.6-9,6.5-14.2,8.7
		c-3.8,1.6-7.6,2.8-11.7,3.3c-0.7,0.1-1.4,0.2-2.1,0.4c-0.7,0.1-1.3,0.2-1.9,0.3H56.4c-1.8-0.3-3.6-0.6-5.4-1
		c-7.2-1.3-13.8-4.2-19.8-8.2c-0.3-0.2-0.7-0.8-0.6-1.2c0.2-1.5,0.5-3,0.8-4.6c0.6-3.3,1.2-6.5,1.7-9.8c0.8-4.5,1.5-9.1,2.3-13.6
		c0.6-3.5,1.2-7,1.8-10.5c0.4-2.4,0.9-4.7,1.2-6.9c1.1-0.2,2-0.2,2.8-0.4c1.8-0.5,3.7-1.1,5.5-1.5c0.5-0.1,1.1,0.2,1.6,0.2
		c0.3,0,0.7-0.2,0.7-0.4c0.1-1,0.7-1.1,1.7-0.7c-0.5,1.2-0.9,2.3-1.3,3.5c0.7,0.2,1.2,0.4,1.8,0.6c0.4-1.3,0.7-2.5,1.1-3.7
		c-0.5-0.2-0.9-0.4-1.7-0.8c0.6-0.5,1-1,1.5-1.2c2.4-0.9,3.9-2.7,5.2-4.7c1.2-1.7,2-3.5,1.1-5.7c-0.3-0.6-0.2-1.2,0.8-0.9
		c0.1,0,0.2,0,0.2,0c0.5,0.1,1,0.1,1.5,0.1c1.5-0.2,2.6-1.5,2.7-2.9c0.1-1.5-0.8-2.8-2.3-3c-0.6-0.1-1.2-0.1-1.9-0.1
		c-1.1,0.1-2.2,0.4-3.1,1.1C55.4,40,55.1,39.5,55,39c-0.3-1-0.4-2.1-0.6-3.1c-0.2-1.2-0.3-2.3-0.5-3.5c-0.1-0.8-0.3-1.5-0.4-2.3
		c-0.3-1.7-0.4-3.4-0.7-5c-0.2-1.1-1.4-1.5-2.3-0.9c-0.3,0.2-0.5,0.4-0.8,0.4c-2.2,0-4.4,0.1-6.6,0c-0.8,0-1.6-0.1-2.4-0.2
		c-1.1-0.1-2.2-0.3-3.3-0.5c-0.4-0.1-0.8-0.1-1.1-0.2v-0.4c0.3-0.1,0.5-0.1,0.8-0.2c1.4-0.2,2.9-0.5,4.3-0.7c0.3,0,0.5-0.2,0.8-0.2
		c4.2-0.2,8.5-0.5,12.8-0.7c0.9,0,1.2-0.4,1.5-1.2c0.2-0.7,0.6-1.3,1.1-1.8c0.7-0.7,1.1-1.3,1.1-2.3c-0.1-1.4-0.3-2.9,0.8-4.1
		c0.1-0.1,0.1-0.3,0.1-0.4c0.3-0.8,0.5-1.6,0.9-2.4c0.3-0.7,0.8-1.4,1.2-2h5c0.6,0.1,1.1,0.3,1.7,0.4c0.2,0,0.5,0.1,0.7,0.1
		c5.1,0.5,9.9,2,14.5,4c7.6,3.4,14,8.2,19.4,14.6c3.6,4.3,6.5,9,8.7,14.2c1.7,4.2,3,8.5,3.5,13.1C115.3,54.7,115.5,55.5,115.7,56.4z
		"/>
	<path d="M35.7,61.4c-0.1,0.7-0.7,1.4-1.2,1.9c-0.8,0.8-1.8,1.3-2.6,2.1c-0.5,0.5-0.9,1-1.2,1.6c-0.7,1.5-3.4,2.8-5.1,2.2
		c0,0.9-0.1,1.8,0,2.6c0.1,1.2-0.2,1.5-1.4,1.2c-0.2-0.1-0.4-0.1-0.7-0.2c-0.1,0.2-0.2,0.4-0.2,0.5c-0.5,3.4-1.1,6.8-1.6,10.2
		c0,0.4-0.1,0.7-0.3,1.1c-0.3,0.6-0.9,0.6-1.1,0.1c-0.5-1-1-2.1-1.1-3.2c-0.1-1.6,0-3.2,0-4.7c-0.2,0.4-0.3,0.9-0.5,1.5
		c-0.9,1.5-0.8,3.1-0.2,4.7c0.3,0.9,0.5,2.1,0.4,3.1c-0.3,2.2-0.4,4.3,0.2,6.4c0.2,0.8,0.1,1.7,0.2,2.6c0,0.4,0,0.8,0.2,1
		c2.6,2.6,5.2,5.2,7.8,7.7c0.7,0.7,1.7,1.2,2.6,1.9c2.6-15.4,5.2-30.5,7.8-45.6C36.5,59.8,35.8,60.1,35.7,61.4z"/>
	<path d="M36.2,49.5c1.3,0.8,1.3,0.7,2.2-0.6c2.1-2.8,2.6-6.2,3.2-9.5c0-0.3,0-0.5-0.1-0.8c-0.2-0.6-0.3-1.1-0.5-1.8
		c-0.4,0-1,0.1-1.5,0.2c-0.8,0.1-1.8,0.1-2.4,0.5c-1.4,0.9-2.7,1.9-4,3c-0.2,0.2-0.3,0.7-0.4,1c-0.3,1.4-0.5,2.8-0.7,4.3
		c0,0.5,0.1,1.1,0.4,1.3C33.6,47.9,34.9,48.7,36.2,49.5z"/>
	<path d="M46.1,30.9c-0.5,0.4-1,0.8-1.1,1.3c-0.3,2-1.1,3.5-2.9,4.2c0.6,1.6,1.2,3,1.8,4.5c1.1-1.2,2.1-1.4,3-0.5
		c0.4,0.5,0.7,1.1,0.8,1.7c0.4,2.3,0.7,4.7,1,7.1c0.1,0,0.2,0,0.3,0.1c0.2-0.2,0.4-0.5,0.4-0.7c0.2-1.4,0.6-2.8,1.6-3.9
		c0.1-0.1,0.2-0.3,0.2-0.4c-0.2-1.8-0.2-3.6-0.6-5.4c-0.7-3-1.7-6-2.7-9.2C47.2,30.2,46.6,30.5,46.1,30.9z"/>
	<path d="M29.5,64.8c1.1-1.7,2.4-3.4,3.1-5.3c0.6-1.7,1.4-2.7,3.1-3.1c0.6-0.2,1.1-0.4,1.6-0.6c1.2-0.6,1.9-2.1,1.5-3.7
		c-0.1,0.4-0.3,0.6-0.4,0.9c-1,1.9-2.5,2.1-3.8,0.3c-0.2-0.3-0.3-0.6-0.5-0.9c-0.6-0.8-1.3-1.6-1.9-2.4c-0.2,1.6-0.4,3-0.2,4.4
		c0.5,2.9-0.7,5.2-2.6,7.1c-1.2,1.2-1.5,2.5-1.7,4.4C28.5,65.4,29.3,65.2,29.5,64.8z"/>
	<path d="M51.8,34.5c0-2.8-0.1-5.6-0.2-8.4c0-0.2-0.2-0.4-0.4-0.5c-0.1-0.1-0.4,0.1-0.4,0.2c-0.2,0.7-0.8,1.5-0.7,2.2
		c0.3,2.1,0.7,4.3,1.1,6.4C51.4,34.4,51.7,34.4,51.8,34.5z"/>
	<path d="M39.5,54.5c0.7-0.3,1.4-0.7,2-1c0.8-0.4,1-1,0.9-1.9c-0.1-1-0.1-2-0.2-3C39.9,49.7,39.9,52.1,39.5,54.5z"/>
	<path d="M42.3,38.6c-0.4,1.8-0.7,3.4-0.9,5.1C44.2,41.2,44.1,42.1,42.3,38.6z"/>
</g>
</svg>
